<svg width="114" height="36" viewBox="0 0 114 36" fill="none" xmlns="http://www.w3.org/2000/svg">
<path d="M9.653 22.947L9.6377 17.2715L6.88407 21.8915H5.53785L2.78423 17.3939V22.947H0V12.2385H2.49356L6.25686 18.4188L9.92836 12.2385H12.4219L12.4525 22.947H9.653Z" fill="#2A2367"/>
<path d="M51.8651 20.6065V22.947H43.2677V12.2385H51.6662V14.5791H46.2661V16.3842H51.0237V18.6483H46.2661V20.6065H51.8651Z" fill="#2A2367"/>
<path d="M64.8053 12.2385V22.947H62.3117L57.5846 17.2409V22.947H54.6168V12.2385H57.1104L61.8375 17.9446V12.2385H64.8053Z" fill="#2A2367"/>
<path d="M78.2011 12.2385V22.947H75.7076L70.9805 17.2409V22.947H68.0127V12.2385H70.5063L75.2333 17.9446V12.2385H78.2011Z" fill="#2A2367"/>
<path d="M81.4086 12.2385H84.4375V22.947H81.4086V12.2385Z" fill="#2A2367"/>
<path d="M92.6046 23.1612C91.0136 23.1612 89.7745 22.7278 88.8872 21.8609C88.0101 20.994 87.5716 19.7651 87.5716 18.1741V12.2385H90.6006V18.0823C90.6006 19.7957 91.2788 20.6523 92.6352 20.6523C93.9814 20.6523 94.6545 19.7957 94.6545 18.0823V12.2385H97.6376V18.1741C97.6376 19.7651 97.194 20.994 96.3067 21.8609C95.4296 22.7278 94.1956 23.1612 92.6046 23.1612Z" fill="#2A2367"/>
<path d="M110.429 22.947L110.398 17.2715L107.645 21.8915H106.298L103.56 17.4245V22.947H100.76V12.2385H103.254L107.017 18.4188L110.689 12.2385H113.182L113.213 22.947H110.429Z" fill="#2A2367"/>
<rect x="16.7002" y="12.1109" width="4.4619" height="10.836" fill="#6B5AF9"/>
<rect x="25.624" y="4.4619" width="4.4619" height="26.134" fill="#6B5AF9"/>
<rect x="34.5478" width="4.4619" height="35.0578" fill="#6B5AF9"/>
</svg>
