<svg width="160" height="55" viewBox="0 0 160 55" fill="none" xmlns="http://www.w3.org/2000/svg">
<path d="M15.6148 36L15.5905 27.096L11.2086 34.344H9.06634L4.68447 27.288V36H0.253906V19.2H4.22194L10.2105 28.896L16.053 19.2H20.021L20.0697 36H15.6148Z" fill="#2A2367"/>
<path d="M82.7873 32.328V36H69.1061V19.2H82.4709V22.872H73.8775V25.704H81.4484V29.256H73.8775V32.328H82.7873Z" fill="#2A2367"/>
<path d="M103.379 19.2V36H99.4111L91.8889 27.048V36H87.1662V19.2H91.1342L98.6564 28.152V19.2H103.379Z" fill="#2A2367"/>
<path d="M108.483 19.2H113.303V36H108.483V19.2Z" fill="#2A2367"/>
<path d="M126.3 36.336C123.768 36.336 121.796 35.656 120.384 34.296C118.988 32.936 118.29 31.008 118.29 28.512V19.2H123.11V28.368C123.11 31.056 124.19 32.4 126.348 32.4C128.49 32.4 129.562 31.056 129.562 28.368V19.2H134.309V28.512C134.309 31.008 133.603 32.936 132.191 34.296C130.795 35.656 128.831 36.336 126.3 36.336Z" fill="#2A2367"/>
<path d="M154.663 36L154.615 27.096L150.233 34.344H148.09L143.733 27.336V36H139.278V19.2H143.246L149.235 28.896L155.077 19.2H159.045L159.094 36H154.663Z" fill="#2A2367"/>
<rect x="26.8292" y="19" width="7.10026" height="17" fill="#6B5AF9"/>
<rect x="41.0297" y="7" width="7.10026" height="41" fill="#6B5AF9"/>
<rect x="55.2302" width="7.10026" height="55" fill="#6B5AF9"/>
</svg>
