<svg width="64" height="40" viewBox="0 0 64 40" fill="none" xmlns="http://www.w3.org/2000/svg">
<rect x="0.653625" y="0.625" width="62.888" height="38.75" rx="5" fill="#6B5AF9"/>
<g clip-path="url(#clip0_611_951)">
<path d="M42.0259 25.0058L39.1919 22.2118C38.1798 21.214 36.4592 21.6131 36.0543 22.9103C35.7507 23.8084 34.7385 24.3073 33.8276 24.1077C31.8033 23.6088 29.0706 21.0144 28.5645 18.9189C28.2609 18.0208 28.8681 17.023 29.7791 16.7237C31.0948 16.3245 31.4997 14.6282 30.4876 13.6303L27.6536 10.8364C26.8439 10.1379 25.6293 10.1379 24.9208 10.8364L22.9977 12.7323C21.0747 14.728 23.2002 20.0165 27.9572 24.7064C32.7143 29.3963 38.0786 31.5916 40.1029 29.5959L42.0259 27.7C42.7345 26.9017 42.7345 25.7043 42.0259 25.0058Z" fill="white"/>
</g>
<defs>
<clipPath id="clip0_611_951">
<rect width="20.3076" height="20.0208" fill="white" transform="translate(22.2714 10.3125)"/>
</clipPath>
</defs>
</svg>
